<svg xmlns="http://www.w3.org/2000/svg" viewBox="0 0 1200 675" role="img" aria-labelledby="title desc">
  <title id="title">Karwande Healthcare cover art</title>
  <desc id="desc">Stylized healthcare themed illustration with UI cards and medical cross accents.</desc>
  <defs>
    <linearGradient id="bg" x1="0%" x2="100%" y1="0%" y2="100%">
      <stop offset="0%" stop-color="#06111f"/>
      <stop offset="50%" stop-color="#102c4c"/>
      <stop offset="100%" stop-color="#1d0f3d"/>
    </linearGradient>
    <linearGradient id="glow" x1="0%" x2="100%">
      <stop offset="0%" stop-color="#4cc9f0"/>
      <stop offset="100%" stop-color="#f72585"/>
    </linearGradient>
  </defs>
  <rect width="1200" height="675" fill="url(#bg)"/>
  <circle cx="240" cy="140" r="140" fill="#4cc9f0" opacity=".12"/>
  <circle cx="1000" cy="520" r="170" fill="#f72585" opacity=".10"/>
  <rect x="110" y="110" width="980" height="455" rx="34" fill="#0f172a" opacity=".82" stroke="#4361ee" stroke-opacity=".35"/>
  <rect x="160" y="160" width="370" height="355" rx="24" fill="#111827" stroke="#4cc9f0" stroke-opacity=".25"/>
  <rect x="590" y="160" width="450" height="90" rx="20" fill="#111827" stroke="#ffffff" stroke-opacity=".08"/>
  <rect x="590" y="275" width="450" height="110" rx="20" fill="#111827" stroke="#ffffff" stroke-opacity=".08"/>
  <rect x="590" y="410" width="210" height="105" rx="20" fill="#111827" stroke="#ffffff" stroke-opacity=".08"/>
  <rect x="830" y="410" width="210" height="105" rx="20" fill="#111827" stroke="#ffffff" stroke-opacity=".08"/>
  <circle cx="345" cy="265" r="86" fill="none" stroke="url(#glow)" stroke-width="24"/>
  <path d="M345 211v108M291 265h108" stroke="#ffffff" stroke-width="24" stroke-linecap="round"/>
  <rect x="226" y="392" width="238" height="18" rx="9" fill="#60a5fa" opacity=".92"/>
  <rect x="226" y="425" width="184" height="14" rx="7" fill="#cbd5e1" opacity=".72"/>
  <rect x="226" y="450" width="214" height="14" rx="7" fill="#cbd5e1" opacity=".52"/>
  <rect x="622" y="188" width="210" height="16" rx="8" fill="#ffffff" opacity=".9"/>
  <rect x="622" y="216" width="160" height="11" rx="5.5" fill="#94a3b8" opacity=".8"/>
  <rect x="622" y="306" width="270" height="15" rx="7.5" fill="#4cc9f0" opacity=".95"/>
  <rect x="622" y="336" width="350" height="11" rx="5.5" fill="#cbd5e1" opacity=".7"/>
  <rect x="622" y="357" width="295" height="11" rx="5.5" fill="#cbd5e1" opacity=".52"/>
  <rect x="622" y="439" width="118" height="14" rx="7" fill="#f72585" opacity=".9"/>
  <rect x="622" y="467" width="138" height="10" rx="5" fill="#cbd5e1" opacity=".62"/>
  <rect x="862" y="439" width="126" height="14" rx="7" fill="#4361ee" opacity=".95"/>
  <rect x="862" y="467" width="110" height="10" rx="5" fill="#cbd5e1" opacity=".62"/>
  <text x="110" y="625" fill="#ffffff" font-family="Poppins, Arial, sans-serif" font-size="52" font-weight="700">Karwande Healthcare</text>
  <text x="110" y="655" fill="#93c5fd" font-family="Poppins, Arial, sans-serif" font-size="22">Patient-first website experience</text>
</svg>
