<svg xmlns="http://www.w3.org/2000/svg" viewBox="0 0 1200 675" role="img" aria-labelledby="title desc">
  <title id="title">Nayan Computers cover art</title>
  <desc id="desc">Stylized technology storefront illustration with device screens and service panels.</desc>
  <defs>
    <linearGradient id="bg" x1="0%" x2="100%" y1="0%" y2="100%">
      <stop offset="0%" stop-color="#050816"/>
      <stop offset="50%" stop-color="#111c44"/>
      <stop offset="100%" stop-color="#0b3b2e"/>
    </linearGradient>
    <linearGradient id="accent" x1="0%" x2="100%">
      <stop offset="0%" stop-color="#22c55e"/>
      <stop offset="100%" stop-color="#38bdf8"/>
    </linearGradient>
  </defs>
  <rect width="1200" height="675" fill="url(#bg)"/>
  <circle cx="1030" cy="118" r="145" fill="#38bdf8" opacity=".1"/>
  <circle cx="160" cy="120" r="110" fill="#22c55e" opacity=".11"/>
  <rect x="110" y="92" width="980" height="490" rx="36" fill="#0f172a" opacity=".84" stroke="#38bdf8" stroke-opacity=".26"/>
  <rect x="150" y="150" width="450" height="300" rx="26" fill="#020617" stroke="#38bdf8" stroke-opacity=".35"/>
  <rect x="190" y="190" width="370" height="220" rx="18" fill="#0b1120"/>
  <rect x="302" y="450" width="146" height="18" rx="9" fill="#334155"/>
  <rect x="266" y="468" width="218" height="24" rx="12" fill="#111827"/>
  <rect x="640" y="150" width="410" height="86" rx="22" fill="#111827" stroke="#fff" stroke-opacity=".08"/>
  <rect x="640" y="262" width="190" height="122" rx="22" fill="#111827" stroke="#fff" stroke-opacity=".08"/>
  <rect x="860" y="262" width="190" height="122" rx="22" fill="#111827" stroke="#fff" stroke-opacity=".08"/>
  <rect x="640" y="410" width="410" height="106" rx="22" fill="#111827" stroke="#fff" stroke-opacity=".08"/>
  <path d="M250 235h250M250 275h130M250 315h180" stroke="url(#accent)" stroke-width="16" stroke-linecap="round"/>
  <circle cx="505" cy="220" r="16" fill="#22c55e"/>
  <circle cx="460" cy="220" r="16" fill="#38bdf8"/>
  <rect x="670" y="178" width="190" height="15" rx="7.5" fill="#f8fafc" opacity=".9"/>
  <rect x="670" y="204" width="130" height="10" rx="5" fill="#94a3b8" opacity=".72"/>
  <rect x="670" y="296" width="102" height="14" rx="7" fill="#22c55e" opacity=".95"/>
  <rect x="670" y="324" width="84" height="10" rx="5" fill="#cbd5e1" opacity=".65"/>
  <rect x="890" y="296" width="108" height="14" rx="7" fill="#38bdf8" opacity=".95"/>
  <rect x="890" y="324" width="94" height="10" rx="5" fill="#cbd5e1" opacity=".65"/>
  <rect x="670" y="440" width="240" height="15" rx="7.5" fill="#f8fafc" opacity=".9"/>
  <rect x="670" y="468" width="310" height="10" rx="5" fill="#94a3b8" opacity=".72"/>
  <text x="110" y="625" fill="#ffffff" font-family="Poppins, Arial, sans-serif" font-size="52" font-weight="700">Nayan Computers</text>
  <text x="110" y="655" fill="#86efac" font-family="Poppins, Arial, sans-serif" font-size="22">Tech products, support services, and digital storefront UI</text>
</svg>
